<mxfile host="app.diagrams.net" agent="Mozilla/5.0 (Windows NT 10.0; Win64; x64) AppleWebKit/537.36 (KHTML, like Gecko) Chrome/134.0.0.0 Safari/537.36" version="26.1.1">
  <diagram name="Página-1" id="qnGuNXB1Vg3iQ-KlB-pj">
    <mxGraphModel dx="1035" dy="522" grid="1" gridSize="10" guides="1" tooltips="1" connect="1" arrows="1" fold="1" page="1" pageScale="1" pageWidth="827" pageHeight="1169" math="0" shadow="0">
      <root>
        <mxCell id="0" />
        <mxCell id="1" parent="0" />
        <mxCell id="SpX4YPqY_ZgIRlxJbrZR-1" value="" style="rounded=1;whiteSpace=wrap;html=1;rotation=90;" vertex="1" parent="1">
          <mxGeometry x="128" y="140" width="570" height="340" as="geometry" />
        </mxCell>
        <mxCell id="SpX4YPqY_ZgIRlxJbrZR-3" value="&lt;font style=&quot;font-size: 18px;&quot;&gt;Escolher serviço&lt;/font&gt;" style="ellipse;whiteSpace=wrap;html=1;" vertex="1" parent="1">
          <mxGeometry x="345.5" y="80" width="115" height="70" as="geometry" />
        </mxCell>
        <mxCell id="SpX4YPqY_ZgIRlxJbrZR-4" value="&lt;font style=&quot;font-size: 14px;&quot;&gt;Atendimento&lt;/font&gt;" style="text;html=1;align=center;verticalAlign=middle;resizable=0;points=[];autosize=1;strokeColor=none;fillColor=none;" vertex="1" parent="1">
          <mxGeometry x="353" y="40" width="100" height="30" as="geometry" />
        </mxCell>
        <mxCell id="SpX4YPqY_ZgIRlxJbrZR-5" value="&lt;font style=&quot;font-size: 18px;&quot;&gt;Registrar serviço&lt;/font&gt;" style="ellipse;whiteSpace=wrap;html=1;" vertex="1" parent="1">
          <mxGeometry x="345.5" y="170" width="120" height="80" as="geometry" />
        </mxCell>
        <mxCell id="SpX4YPqY_ZgIRlxJbrZR-7" value="&lt;span style=&quot;font-size: 18px;&quot;&gt;Realizar serviço&lt;/span&gt;" style="ellipse;whiteSpace=wrap;html=1;" vertex="1" parent="1">
          <mxGeometry x="345.5" y="270" width="120" height="80" as="geometry" />
        </mxCell>
        <mxCell id="SpX4YPqY_ZgIRlxJbrZR-8" value="&lt;span style=&quot;font-size: 18px;&quot;&gt;Pagar serviço&lt;/span&gt;" style="ellipse;whiteSpace=wrap;html=1;" vertex="1" parent="1">
          <mxGeometry x="345.5" y="370" width="120" height="80" as="geometry" />
        </mxCell>
        <mxCell id="SpX4YPqY_ZgIRlxJbrZR-27" value="&lt;span style=&quot;font-size: 18px;&quot;&gt;Entregar veículo&lt;/span&gt;" style="ellipse;whiteSpace=wrap;html=1;" vertex="1" parent="1">
          <mxGeometry x="353" y="470" width="120" height="80" as="geometry" />
        </mxCell>
        <mxCell id="SpX4YPqY_ZgIRlxJbrZR-43" style="edgeStyle=orthogonalEdgeStyle;rounded=0;orthogonalLoop=1;jettySize=auto;html=1;" edge="1" parent="1" source="SpX4YPqY_ZgIRlxJbrZR-29" target="SpX4YPqY_ZgIRlxJbrZR-5">
          <mxGeometry relative="1" as="geometry">
            <Array as="points">
              <mxPoint x="230" y="145" />
              <mxPoint x="230" y="210" />
            </Array>
          </mxGeometry>
        </mxCell>
        <mxCell id="SpX4YPqY_ZgIRlxJbrZR-44" style="edgeStyle=orthogonalEdgeStyle;rounded=0;orthogonalLoop=1;jettySize=auto;html=1;entryX=0;entryY=0.5;entryDx=0;entryDy=0;" edge="1" parent="1" source="SpX4YPqY_ZgIRlxJbrZR-29" target="SpX4YPqY_ZgIRlxJbrZR-8">
          <mxGeometry relative="1" as="geometry">
            <Array as="points">
              <mxPoint x="230" y="145" />
              <mxPoint x="230" y="410" />
            </Array>
          </mxGeometry>
        </mxCell>
        <mxCell id="SpX4YPqY_ZgIRlxJbrZR-29" value="Atendente" style="shape=umlActor;verticalLabelPosition=bottom;verticalAlign=top;html=1;outlineConnect=0;" vertex="1" parent="1">
          <mxGeometry x="98" y="100" width="42" height="90" as="geometry" />
        </mxCell>
        <mxCell id="SpX4YPqY_ZgIRlxJbrZR-32" value="Cliente" style="shape=umlActor;verticalLabelPosition=bottom;verticalAlign=top;html=1;outlineConnect=0;" vertex="1" parent="1">
          <mxGeometry x="98" y="380" width="42" height="90" as="geometry" />
        </mxCell>
        <mxCell id="SpX4YPqY_ZgIRlxJbrZR-39" style="edgeStyle=orthogonalEdgeStyle;rounded=0;orthogonalLoop=1;jettySize=auto;html=1;" edge="1" parent="1">
          <mxGeometry relative="1" as="geometry">
            <mxPoint x="707.5" y="280" as="sourcePoint" />
            <mxPoint x="473" y="314.9999999999999" as="targetPoint" />
            <Array as="points">
              <mxPoint x="610" y="280" />
              <mxPoint x="610" y="315" />
            </Array>
          </mxGeometry>
        </mxCell>
        <mxCell id="SpX4YPqY_ZgIRlxJbrZR-33" value="Lavador" style="shape=umlActor;verticalLabelPosition=bottom;verticalAlign=top;html=1;outlineConnect=0;" vertex="1" parent="1">
          <mxGeometry x="698" y="230" width="42" height="90" as="geometry" />
        </mxCell>
        <mxCell id="SpX4YPqY_ZgIRlxJbrZR-40" style="edgeStyle=orthogonalEdgeStyle;rounded=0;orthogonalLoop=1;jettySize=auto;html=1;entryX=0.992;entryY=0.688;entryDx=0;entryDy=0;entryPerimeter=0;" edge="1" parent="1">
          <mxGeometry relative="1" as="geometry">
            <mxPoint x="698.96" y="280" as="sourcePoint" />
            <mxPoint x="472.99999999999994" y="530.0400000000001" as="targetPoint" />
            <Array as="points">
              <mxPoint x="640.96" y="280" />
              <mxPoint x="640.96" y="530" />
            </Array>
          </mxGeometry>
        </mxCell>
        <mxCell id="SpX4YPqY_ZgIRlxJbrZR-41" style="edgeStyle=orthogonalEdgeStyle;rounded=0;orthogonalLoop=1;jettySize=auto;html=1;entryX=0.068;entryY=0.708;entryDx=0;entryDy=0;entryPerimeter=0;" edge="1" parent="1" source="SpX4YPqY_ZgIRlxJbrZR-32" target="SpX4YPqY_ZgIRlxJbrZR-27">
          <mxGeometry relative="1" as="geometry">
            <Array as="points">
              <mxPoint x="260" y="425" />
              <mxPoint x="260" y="527" />
            </Array>
          </mxGeometry>
        </mxCell>
        <mxCell id="SpX4YPqY_ZgIRlxJbrZR-42" style="edgeStyle=orthogonalEdgeStyle;rounded=0;orthogonalLoop=1;jettySize=auto;html=1;entryX=-0.009;entryY=0.595;entryDx=0;entryDy=0;entryPerimeter=0;" edge="1" parent="1" source="SpX4YPqY_ZgIRlxJbrZR-32" target="SpX4YPqY_ZgIRlxJbrZR-3">
          <mxGeometry relative="1" as="geometry">
            <Array as="points">
              <mxPoint x="260" y="425" />
              <mxPoint x="260" y="122" />
            </Array>
          </mxGeometry>
        </mxCell>
        <mxCell id="SpX4YPqY_ZgIRlxJbrZR-46" value="" style="endArrow=classic;startArrow=classic;html=1;rounded=0;" edge="1" parent="1">
          <mxGeometry width="50" height="50" relative="1" as="geometry">
            <mxPoint x="120" y="370" as="sourcePoint" />
            <mxPoint x="120" y="230" as="targetPoint" />
          </mxGeometry>
        </mxCell>
        <mxCell id="SpX4YPqY_ZgIRlxJbrZR-47" value="Info/pagamento" style="text;html=1;align=center;verticalAlign=middle;resizable=0;points=[];autosize=1;strokeColor=none;fillColor=none;" vertex="1" parent="1">
          <mxGeometry x="90" y="295" width="110" height="30" as="geometry" />
        </mxCell>
      </root>
    </mxGraphModel>
  </diagram>
</mxfile>
